<?xml version="1.0" standalone="no"?>
<!DOCTYPE svg PUBLIC "-//W3C//DTD SVG 1.1//EN"
"http://www.w3.org/Graphics/SVG/1.1/DTD/svg11.dtd">
<!-- Creator: fig2dev Version 3.2 Patchlevel 5d -->
<!-- CreationDate: Tue Dec  6 16:11:32 2011 -->
<!-- Magnification: 1.000 -->
<svg	xmlns="http://www.w3.org/2000/svg"
	xmlns:xlink="http://www.w3.org/1999/xlink"
	width="4.1in" height="6.1in"
	viewBox="2367 1167 4866 7266">
<g style="stroke-width:.025in; fill:none">
<!-- Line: box -->
<rect x="2700" y="3300" width="2100" height="150" rx="0" 
style="stroke:#000000;stroke-width:0;
stroke-linejoin:miter; stroke-linecap:butt;
fill:#7f7f7f;
"/>
<!-- Line: box -->
<rect x="2700" y="2850" width="2100" height="150" rx="0" 
style="stroke:#000000;stroke-width:0;
stroke-linejoin:miter; stroke-linecap:butt;
fill:#7f7f7f;
"/>
<!-- Line: box -->
<rect x="2700" y="2400" width="2100" height="150" rx="0" 
style="stroke:#000000;stroke-width:0;
stroke-linejoin:miter; stroke-linecap:butt;
fill:#7f7f7f;
"/>
<!-- Line: box -->
<rect x="2700" y="1950" width="2100" height="150" rx="0" 
style="stroke:#000000;stroke-width:0;
stroke-linejoin:miter; stroke-linecap:butt;
fill:#7f7f7f;
"/>
<!-- Line -->
<polygon points="4800,1200
2400,1200
2400,8400
7200,8400
7200,3600
4800,1200
4800,1200
" style="stroke:#000000;stroke-width:30;
stroke-linejoin:miter; stroke-linecap:butt;
"/>
<!-- Line -->
<polygon points="4800,1200
4800,3600
7200,3600
4800,1200
" style="stroke:#000000;stroke-width:30;
stroke-linejoin:miter; stroke-linecap:butt;
"/>
<!-- Line: box -->
<rect x="4950" y="1650" width="150" height="1650" rx="0" 
style="stroke:#000000;stroke-width:0;
stroke-linejoin:miter; stroke-linecap:butt;
fill:#7f7f7f;
"/>
<!-- Line: box -->
<rect x="2700" y="3750" width="4200" height="150" rx="0" 
style="stroke:#000000;stroke-width:0;
stroke-linejoin:miter; stroke-linecap:butt;
fill:#7f7f7f;
"/>
<!-- Line: box -->
<rect x="2700" y="4200" width="4200" height="150" rx="0" 
style="stroke:#000000;stroke-width:0;
stroke-linejoin:miter; stroke-linecap:butt;
fill:#7f7f7f;
"/>
<!-- Line: box -->
<rect x="2700" y="4650" width="4200" height="150" rx="0" 
style="stroke:#000000;stroke-width:0;
stroke-linejoin:miter; stroke-linecap:butt;
fill:#7f7f7f;
"/>
<!-- Line: box -->
<rect x="2700" y="5100" width="4200" height="150" rx="0" 
style="stroke:#000000;stroke-width:0;
stroke-linejoin:miter; stroke-linecap:butt;
fill:#7f7f7f;
"/>
<!-- Line: box -->
<rect x="2700" y="5550" width="4200" height="150" rx="0" 
style="stroke:#000000;stroke-width:0;
stroke-linejoin:miter; stroke-linecap:butt;
fill:#7f7f7f;
"/>
<!-- Line: box -->
<rect x="2700" y="6000" width="4200" height="150" rx="0" 
style="stroke:#000000;stroke-width:0;
stroke-linejoin:miter; stroke-linecap:butt;
fill:#7f7f7f;
"/>
<!-- Line: box -->
<rect x="2700" y="6450" width="4200" height="150" rx="0" 
style="stroke:#000000;stroke-width:0;
stroke-linejoin:miter; stroke-linecap:butt;
fill:#7f7f7f;
"/>
<!-- Line: box -->
<rect x="2700" y="6900" width="4200" height="150" rx="0" 
style="stroke:#000000;stroke-width:0;
stroke-linejoin:miter; stroke-linecap:butt;
fill:#7f7f7f;
"/>
<!-- Line: box -->
<rect x="2700" y="7350" width="4200" height="150" rx="0" 
style="stroke:#000000;stroke-width:0;
stroke-linejoin:miter; stroke-linecap:butt;
fill:#7f7f7f;
"/>
<!-- Line: box -->
<rect x="2700" y="7800" width="4200" height="150" rx="0" 
style="stroke:#000000;stroke-width:0;
stroke-linejoin:miter; stroke-linecap:butt;
fill:#7f7f7f;
"/>
<!-- Line: box -->
<rect x="5400" y="2100" width="150" height="1200" rx="0" 
style="stroke:#000000;stroke-width:0;
stroke-linejoin:miter; stroke-linecap:butt;
fill:#7f7f7f;
"/>
<!-- Line: box -->
<rect x="5850" y="2550" width="150" height="750" rx="0" 
style="stroke:#000000;stroke-width:0;
stroke-linejoin:miter; stroke-linecap:butt;
fill:#7f7f7f;
"/>
<!-- Line: box -->
<rect x="6300" y="3000" width="150" height="300" rx="0" 
style="stroke:#000000;stroke-width:0;
stroke-linejoin:miter; stroke-linecap:butt;
fill:#7f7f7f;
"/>
</g>
</svg>
