/* XPM */
static char *noname[] = {
/* width height ncolors chars_per_pixel */
"171 91 2 1",
/* colors */
"  c Black",
". c None",
/* pixels */
"..............................................................................................................                                                             ",
".............................................................................................................. ........................................................... ",
".............................................................................................................. ........................................................... ",
".............................................................................................................. ........................................................... ",
".............................................................................................................. ........................................................... ",
".............................................................................................................. ........................................................... ",
".............................................................................................................. ........................................................... ",
".............................................................................................................. ........................................................... ",
".............................................................................................................. ........................................................... ",
".............................................................................................................. ........................................................... ",
".............................................................................................................. ........................................................... ",
".............................................................................................................. ........................................................... ",
".............................................................................................................. ........................................................... ",
".............................................................................................................. ........................................................... ",
".............................................................................................................. ............................   ............................ ",
"                                         .........                                         ................... ........................... ... ........................... ",
" ....................................... ......... ....................................... ................... ............................... ........................... ",
" ....................................... ......... ....................................... ................... .............................. ............................ ",
" ....................................... ......... ....................................... ................... ............................  ............................. ",
" ....................................... ......... ....................................... ................... ...........................  .. ........................... ",
" ....................................... ......... ....................................... ................... ...........................     ........................... ",
" .................................. .... ......... .... .................................. ................... ........................................................... ",
" .................................   ... ......... ...   ................................. ................... ........................................................... ",
" .................................                       ................................. ................... ........................................................... ",
" .................................. .... ......... .... .................................. ................... ........................................................... ",
" ....................................... ......... ....................................... ................... ........................................................... ",
" ....................................... ......... ....................................... ................... ........................................................... ",
" ....................................... ......... ....................................... ................... ........................................................... ",
" ....................................... ......... ....................................... ................... ........................................................... ",
" .................................   ... ......... ...   ................................. ................... ........................................................... ",
" .................................                       ................................. ................... ........................................................... ",
" .................................   ... ......... ...   ................................. ................... ........................................................... ",
" ....................................... ......... ....................................... ................... ........................................................... ",
" ....................................... ......... ....................................... ................... ........................................................... ",
" ....................................... ......... ....................................... ................... ......  .....   .....  .....   .....  .....   .....  ...... ",
" ....................................... ......... ....................................... ................... .....    ....   ....    ....   ....    ....   ....    ..... ",
" .................................. .... ......... .... .................................. ................... ......  .....   .....  .....   .....  .....   .....  ...... ",
" .................................   ... ......... ...   ................................. ................... ...... ....... ...... ....... ...... ....... ...... ....... ",
" .................................                       ................................. ................... ...... ....... ...... ....... ...... ....... ...... ....... ",
" .................................. .... ......... .... .................................. ................... ...... ....... ...... ....... ...... ....... ...... ....... ",
" ....................................... ......... ....................................... ...................                                                             ",
" ..................   .................. ......... .......................   ............. .......................... ....... ...... ....... ...... ....... ...... ........",
" ................. ... ................. ......... ...................... ... ............ .......................... ....... ...... ....... ...... ....... ...... ........",
" ..................... ................. ......... .......................... ............ .......................... ....... ...... ....... ...... ....... ...... ........",
" .................... ............   ... ......... ...   ..................  ............. .......................... ....... ...... ....... ...... ....... ...... ........",
" ..................  .............                       .................... ............ .......................... ....... ...... ....... ...... ....... ...... ........",
" .................  .. ...........   ... ......... ...   .................... ............ .......................... ....... ...... ....... ...... ....... ...... ........",
" .................     ................. ......... ......................    ............. .......................... ....... ...... ....... ...... ....... ...... ........",
" ....................................... ......... ....................................... .......................... ....... ...... ....... ...... ....... ...... ........",
" ....................................... ......... ....................................... .......................... ....... ...... ....... ...... ....... ...... ........",
" ....................................... ......... ....................................... ...................                                                             ",
" .................................. .... ......... .... .................................. ................... ...... ....... ...... ....... ...... ....... ...... ....... ",
" .................................   ... ......... ...   ................................. ................... ...... ....... ...... ....... ...... ....... ...... ....... ",
" .................................                       ................................. ................... ...... ....... ...... ....... ...... ....... ...... ....... ",
" .................................. .... ......... .... .................................. ................... ......  .....   .....  .....   .....  .....   .....  ...... ",
" ....................................... ......... ....................................... ................... .....    ....   ....    ....   ....    ....   ....    ..... ",
" ....................................... ......... ....................................... ................... ......  .....   .....  .....   .....  .....   .....  ...... ",
" ....................................... ......... ....................................... ................... ........................................................... ",
" ....................................... ......... ....................................... ................... ........................................................... ",
" .................................   ... ......... ...   ................................. ................... ........................................................... ",
" .................................                       ................................. ................... ........................................................... ",
" .................................   ... ......... ...   ................................. ................... ........................................................... ",
" ....................................... ......... ....................................... ................... ........................................................... ",
" ....................................... ......... ....................................... ................... ........................................................... ",
" ....................................... ......... ....................................... ................... ........................................................... ",
" ....................................... ......... ....................................... ................... ........................................................... ",
" .................................. .... ......... .... .................................. ................... ........................................................... ",
" .................................   ... ......... ...   ................................. ................... ........................................................... ",
" .................................                       ................................. ................... ........................................................... ",
" .................................. .... ......... .... .................................. ................... ............................   ............................ ",
" ....................................... ......... ....................................... ................... ........................... ... ........................... ",
" ....................................... ......... ....................................... ................... ............................... ........................... ",
" ....................................... ......... ....................................... ................... .............................  ............................ ",
" ....................................... ......... ....................................... ................... ............................... ........................... ",
" ....................................... ......... ....................................... ................... ............................... ........................... ",
"                                         .........                                         ................... ...........................    ............................ ",
".............................................................................................................. ........................................................... ",
".............................................................................................................. ........................................................... ",
".............................................................................................................. ........................................................... ",
".............................................................................................................. ........................................................... ",
".............................................................................................................. ........................................................... ",
".............................................................................................................. ........................................................... ",
".............................................................................................................. ........................................................... ",
".............................................................................................................. ........................................................... ",
".............................................................................................................. ........................................................... ",
".............................................................................................................. ........................................................... ",
".............................................................................................................. ........................................................... ",
".............................................................................................................. ........................................................... ",
".............................................................................................................. ........................................................... ",
".............................................................................................................. ........................................................... ",
"..............................................................................................................                                                             "
};
